<svg xmlns="http://www.w3.org/2000/svg" id="Layer_1" data-name="Layer 1" viewBox="0 0 439.35 101.76">
  <defs>
    <style>
      .cls-1{fill:#ffffff}
    </style>
  </defs>
  <path d="M25.54 92.47a60.22 60.22 0 0 1-20.11-3.71V75.84h5.05c1.69 6 8.2 9.89 14.72 9.89 7.3 0 13.37-2.47 13.37-11s-8.88-10.68-16.63-12.82C14 59.67 6 56.41 6 46c0-13.14 10.9-16.84 23.48-16.84a79.53 79.53 0 0 1 17.29 2.24v12.77h-4.5C39.35 38.33 34 35.85 28 35.85c-7.19 0-12.13 3.49-12.13 9.1 0 6.18 6.51 8 14.82 10.45 8 2.36 18 5.17 18 17.41-.01 14.04-10.8 19.66-23.15 19.66ZM74.17 75.39c0 6.74 3.82 9.22 9.32 9.22a36.61 36.61 0 0 0 9.78-1.69v7.64a45 45 0 0 1-12.81 1.91c-8.54 0-15.84-4-15.84-16V38h-7.41v-5.07c7.3-2.35 10-8.65 11.46-16.73h5.5v14.49h20.11V38H74.17ZM122 85.17a15.73 15.73 0 0 0 2.81-.11v6.4a31.4 31.4 0 0 1-5.62.56C113 92 107.3 89.66 107.3 80.67V39.56c0-2.58-1.35-2.69-3-2.69h-4.97v-6.18H117V78.2c0 4.49 1.08 6.97 5 6.97ZM106.85 5.41h10.34v10.68h-10.34ZM148.75 75.39c0 6.74 3.82 9.22 9.32 9.22a36.48 36.48 0 0 0 9.77-1.69v7.64A44.88 44.88 0 0 1 155 92.47c-8.54 0-15.84-4-15.84-16V38h-7.41v-5.07c7.3-2.35 10-8.65 11.45-16.73h5.51v14.49h20.1V38h-20.1ZM220.18 76.07h5.28V88.2a44.2 44.2 0 0 1-19.21 4.27c-14 0-30.1-6.63-30.1-31.68s16.06-31.67 30.1-31.67a46.57 46.57 0 0 1 19.21 4.26v12h-5.61c-2-4.72-6.29-9-13.93-9-12.81 0-19.66 9.1-19.66 24.37 0 14.15 6.4 24.38 20 24.38 6.74.04 11.23-3.33 13.92-9.06ZM242.2 14.29c0-2.59-1.35-2.7-3-2.7h-4.94V5.41h17.63v32.13c6.75-4.61 16-8.2 23.14-8.2 9.22 0 17.3 4.83 17.3 17.64v35.27c0 2.58 1.35 2.69 3 2.69h4.94v6.18h-25.5v-6.18h7.86V49.67c0-8.54-4.15-11.57-12.13-11.57-5.62 0-13.36 2.7-18.65 6.07v40.77h8v6.18h-25.5v-6.18h4.83c1.69 0 3-.11 3-2.69ZM356.54 73.37h3.71v13.15c-5.84 3.48-16.29 6-22.36 6-19.2 0-29.31-9.55-29.31-31.9 0-20.34 10.33-31.45 27.85-31.45 21.35 0 25.39 14.82 25.39 29.65v4.6h-42.91c0 15.28 7 21.8 19 21.8 6.95-.05 15.93-1.22 18.63-11.85Zm-4.38-17c0-9.1-2-20-16.06-20-12.14 0-17.3 8.53-17.3 20ZM427.19 80.34c0 2.69 1.35 4.6 4.6 4.6h3.26v6a24.94 24.94 0 0 1-6.63.89c-4.49 0-8.87-1.46-10.22-6.85-7.86 4.94-15.16 7.53-22.35 7.53-12.13 0-23.25-8.2-23.25-30.33 0-25 13.59-33 30-33a80.55 80.55 0 0 1 15.05 2V14.29c0-2.59-1.35-2.7-3-2.7h-6V5.41h18.54Zm-29.55 4.83c7.19 0 13.94-3 19.89-7.64V38.77a52.55 52.55 0 0 0-13.71-2.35c-16.4 0-21.11 10.56-21.11 25.38 0 16.29 5.95 23.37 14.93 23.37Z" class="cls-1"/>
  <rect width="17.5" height="6.11" x="260.71" y="5.41" class="cls-1" rx="3.06"/>
  <rect width="17.5" height="6.11" x="290.82" y="5.41" class="cls-1" rx="3.06"/>
  <rect width="17.5" height="6.11" x="320.93" y="5.41" fill="#4cc197" rx="3.06"/>
  <rect width="17.5" height="6.11" x="382.17" y="5.41" class="cls-1" rx="3.06"/>
  <rect width="17.5" height="6.11" x="351.04" y="5.41" class="cls-1" rx="3.06"/>
</svg>
