<svg xmlns="http://www.w3.org/2000/svg" width="66.378" height="74.855" viewBox="0 0 66.378 74.855">
  <g id="Alternative-Icon" transform="translate(64.783 1.927) rotate(90)">
    <path id="Union_4" data-name="Union 4" d="M0,31.814H0c0-.059,0-.116,0-.175s0-.116,0-.175H0C.2-4.021,30.983.151,30.983.151L.171,31.64,30.983,63.132a24.1,24.1,0,0,1-2.918.151C20.382,63.283.162,60.554,0,31.814Z" transform="translate(0 0)" fill="none" stroke="#578365" stroke-width="3"/>
    <path id="Union_5" data-name="Union 5" d="M0,31.468H0c0,.059,0,.116,0,.175s0,.116,0,.175H0C.2,67.3,30.983,63.132,30.983,63.132L.171,31.642,30.983.151A24.094,24.094,0,0,0,28.065,0C20.382,0,.162,2.729,0,31.468Z" transform="translate(71 63.283) rotate(180)" fill="none" stroke="#578365" stroke-width="3"/>
  </g>
</svg>
